<svg xmlns="http://www.w3.org/2000/svg" xmlns:xlink="http://www.w3.org/1999/xlink" viewBox="0 0 743.88 373.36"><defs><style>.cls-1{fill:#fff;}.cls-2{clip-path:url(#clip-path);}.cls-3{clip-path:url(#clip-path-2);}.cls-4{clip-path:url(#clip-path-3);}</style><clipPath id="clip-path" transform="translate(8.51 21.07)"><path class="cls-1" d="M693.54,201.06h-3.47l.42-2h9.43l-.42,2h-3.45l-1.76,8.78h-2.5Zm19.91-2-2.15,10.82H709l1.27-6.43-4.13,5.29H705l-2.23-5.35-1.3,6.49H699.1L701.27,199h2l2.7,6.74L711.3,199Z"/></clipPath><clipPath id="clip-path-2" transform="translate(8.51 21.07)"><path class="cls-1" d="M474,318.35h49l-3.66,16.73H440.9l2.72-13.23,50.63-39.69c13.35-10.49,17.37-16.88,17.44-24.64.08-8.21-5.81-13.53-18.14-13.53a34.73,34.73,0,0,0-25.39,11.4l-13.3-10.64c8.93-10.65,24.23-17.64,41.59-17.64,22.23,0,35.52,11.56,35.37,27.67-.12,12.48-5.7,23.12-24.42,37.57ZM575.07,245.2l-7.7,24.64h8.08c27.25,0,39.94,11.25,39.77,28.89-.22,22.82-19.55,37.87-47.57,37.87-16.14,0-29.8-4.71-38.1-12.77l10-15.06c6.34,6.39,17,10.65,29.44,10.65,16.6,0,26.11-6.85,26.22-18.56.08-8.82-6.56-14.29-23.77-14.29H544.07l17.45-57.94h62.59L620.6,245.2Zm51.34,51.71c.36-37.72,22.29-69.8,55.33-69.8,23,0,37,14.75,36.78,39.69-.36,37.71-22.29,69.8-55.18,69.8C640.19,336.6,626.17,321.85,626.41,296.91Zm72.15-29.65c.15-15.36-6.93-23-18.66-23-21.47,0-33.48,29.81-33.69,52.16-.15,15.36,6.94,23,19,23C686.49,319.42,698.35,289.61,698.56,267.26Z"/></clipPath><clipPath id="clip-path-3" transform="translate(8.51 21.07)"><path class="cls-1" d="M243.37,0,287.2,209.85H223.86l-9.34-45H138.1l-26.93,45H41.12l29.08-45L0,164.82l206.88-37.48-6.5-30.24h0L194.92,70l-11.5,19.2,13.27,4.85L116,94,176.83,0Zm396,0H486.3a7.9,7.9,0,0,1,1.4,2.21,22.66,22.66,0,0,1,1.16,5.26c.52,3.06,1.13,3.51.76,5.86-.71,4.54-1.54,4.1-2.93,6.77a36.38,36.38,0,0,0-2.54,6.72.18.18,0,0,0,.2.22c.49,0,1.52.1,1.56,1.64.06,2-2.29,6-3,7.14s-2.16,3.47-3.43,4.21c-2.18,1.27-2.85.54-3.17,1.18s-2.5,4.75-2.83,5.87a21.74,21.74,0,0,0-.71,4.4.47.47,0,0,0,.29.47c4.39,1.71,15.83,5.78,18.59,10.45L453,75c5.41-.65,11.36-1.38,16.62-2,7.2-.83,18.86-2.13,22.61-2.09a70.71,70.71,0,0,1,9.65,1.17c4.53.61,8.57.76,13.47,1.75a13.8,13.8,0,0,1,7.18,3.35c.21.14,1.19.94,1.19.94,6-.42,15.2-1,17.16-1.16,1-.09,3-.19,3.43-.25C562.94,74.33,573.14,65.42,582,60c9.83-6,24.61-10.89,35.19-11.17,13.68-.36,23.52,2,30.07,7.92s9.11,13.84,6.47,25.74c-2.54,11.46-6.2,16.75-14.66,22s-17.8,6.94-28.82,5.93c-18.38-1.69-34.8-13.16-41.29-16.9-5.58-3.21-13.25-6.61-21.88-7.38a39.93,39.93,0,0,0-5.06,0c-.58,0-7.6.53-12,.86a12.35,12.35,0,0,1,.59,3.29c-.14,2.25-1.38,3.33-2.76,3.15S523.44,91,522.52,89c-.09-.19-.37-.28-.37,0s0,.72,0,1c-.07.61-.44,2.49-1.77,2.87a4.87,4.87,0,0,1-4.06-1,.66.66,0,0,0-1.05.29c-.48,1.36-.76,2.17-3.34,1.67-1.77-.19-1.4.5-2.53.72-2.75.52-4.08-.94-6.26-2s-1.46-3.08-3.63-3.45c-.42-.08-1.15-.21-1.56-.26a98.8,98.8,0,0,1,3.45,15.75.37.37,0,0,1-.32.42l-2.22.27a.34.34,0,0,0-.31.41c.55,2.87,1.94,8.24,2.24,12.11.54,7,.45,9.1,0,12.59a.36.36,0,0,0,.42.4,7.11,7.11,0,0,0,2.56-1,15.19,15.19,0,0,1,.8-4.08,10.57,10.57,0,0,1,.72-.88,1.81,1.81,0,0,0,.4-.7l.57-2a4,4,0,0,1,.37-.88l3-5.47s.71-1.49,1.93-1.16a3.88,3.88,0,0,1,2,3.19,12.42,12.42,0,0,1-1.45,4.63l1.29,2.07a5.4,5.4,0,0,0,4.59-.9,20.2,20.2,0,0,0,1.93-1.44c-.56-1.52.79-3.47,4.47-2.76,1.27.54,4.88,3.4.37,6.36a.2.2,0,0,0,.13.37c4.91-.3,4.29,5.64,1,7.43a.55.55,0,0,0-.17.81,5.08,5.08,0,0,1,1.12,3.18s0,1.57-4.76,3.2c0,0-1.46.59-.88,1.67.58.21,1.22.43,2,.67,0,0,4.33,1,3.49,3.37,0,0-.7,2-4.81.69a21.75,21.75,0,0,1-4-.13,58.28,58.28,0,0,1-7.82,1.94,3.9,3.9,0,0,0-2.21,1.33l0,0c-2.66,3-10.76,7.24-14.39,7.28-4,.05-4.54-3.06-7.47-6.14-5.69-6-6.66-13.4-7.53-20.78a.42.42,0,0,0-.83,0c-1,8.66-1.52,16.45-6.31,20.72-2.93,2.61-7.51,4.66-14.94,6.42-28.19,6.68-58.52,24-55.09,27.92,1.36,1.56,4.54-1.54,10.11-4.1,21-9.67,48.22-11.6,57-10.91a1.32,1.32,0,0,1,1.2,1.2,39.17,39.17,0,0,0,1.34,6.2c.77,2.71,1.64,7.55,4.52,10.24,5.23,4.9,4.51,6.71,3.28,13.28-.8,4.3,5.08,7.88,5.23,8h60.62l9.32-45h61.54c62.88,0,90.83-28.71,101.5-83.7C721.74,55.61,721.58,0,639.41,0ZM369.14,209.85c.84-.93,1.82-2,3-3.17,2.64-2.71.57-9.58,1.09-12.23.67-3.46,6.65-5.29,7.59-8.68,1.27-4.62-7.85-3.83-3.5-8.71,2.72-3.05,6.7-2,6.43-5-.44-4.87,4.31-8.17,6.31-9.69,8.71-6.61,28.23-17,40.06-20.48,12.4-3.61-4.69-3.27-18.83,1.91-12.85,4.7,16.62-13.75,39.94-19.6,16.61-4.17-12.2-5-38.75,6.69-8.44,3.71-13.14,6-16.51,8.17a.16.16,0,0,1-.24-.2c1.32-2.69,4.07-7.29,3.26-12a14.78,14.78,0,0,1,1.08-9c1-1.91.4-7,1.51-9.7a.45.45,0,0,1,.54-.23l14.26,4.47,55.75-19L419,101.3,400.61,85.56C398,82.8,395.3,71.94,398,67.88a70.9,70.9,0,0,1,9.55-11.68c2.51-2.2,10.18-3.14,13.95-5.05,4.21-2.12,7.58-.68,10.61-1.16a84.21,84.21,0,0,0,9.68-3,.18.18,0,0,0,.13-.19,28.58,28.58,0,0,0-.31-3.67,36.38,36.38,0,0,1-1-10.2c.32-3.3,3.2-6.2,3.34-8.4s-1.46-4.46-.24-6.61,1.43-3.55,2.73-7.76c-.33-2.49-1.92-3.38-.77-5.94C446.27,2.86,447.3,1,447.75,0H253.81l11.08,53.21h76.44l-8.42,40.84,57.6,0-117.58,21.3,55.61-.11-19.48,94.59ZM573.87,88.31a2,2,0,0,0,2.84-2c.06-5.3,1-7.71,2.14-11.95.46-1.7-1-3.06-2.42-2.28-8.56,4.62-14.81,6.55-18.52,7.37a1.49,1.49,0,0,0-1.1,1.35,1.23,1.23,0,0,0,.83,1.28A73.49,73.49,0,0,1,573.87,88.31Z"/></clipPath></defs><g id="Layer_2" data-name="Layer 2"><g id="Layer_2-2" data-name="Layer 2"><path class="cls-1" d="M693.54,201.06h-3.47l.42-2h9.43l-.42,2h-3.45l-1.76,8.78h-2.5Zm19.91-2-2.15,10.82H709l1.27-6.43-4.13,5.29H705l-2.23-5.35-1.3,6.49H699.1L701.27,199h2l2.7,6.74L711.3,199Z" transform="translate(8.51 21.07)"/><g class="cls-2"><rect class="cls-1" x="691.01" y="212.94" width="31.87" height="21.36"/></g><path class="cls-1" d="M474,318.35h49l-3.66,16.73H440.9l2.72-13.23,50.63-39.69c13.35-10.49,17.37-16.88,17.44-24.64.08-8.21-5.81-13.53-18.14-13.53a34.73,34.73,0,0,0-25.39,11.4l-13.3-10.64c8.93-10.65,24.23-17.64,41.59-17.64,22.23,0,35.52,11.56,35.37,27.67-.12,12.48-5.7,23.12-24.42,37.57ZM575.07,245.2l-7.7,24.64h8.08c27.25,0,39.94,11.25,39.77,28.89-.22,22.82-19.55,37.87-47.57,37.87-16.14,0-29.8-4.71-38.1-12.77l10-15.06c6.34,6.39,17,10.65,29.44,10.65,16.6,0,26.11-6.85,26.22-18.56.08-8.82-6.56-14.29-23.77-14.29H544.07l17.45-57.94h62.59L620.6,245.2Zm51.34,51.71c.36-37.72,22.29-69.8,55.33-69.8,23,0,37,14.75,36.78,39.69-.36,37.71-22.29,69.8-55.18,69.8C640.19,336.6,626.17,321.85,626.41,296.91Zm72.15-29.65c.15-15.36-6.93-23-18.66-23-21.47,0-33.48,29.81-33.69,52.16-.15,15.36,6.94,23,19,23C686.49,319.42,698.35,289.61,698.56,267.26Z" transform="translate(8.51 21.07)"/><g class="cls-3"><rect class="cls-1" x="429.53" y="231.26" width="309.32" height="142.1"/></g><path class="cls-1" d="M243.37,0,287.2,209.85H223.86l-9.34-45H138.1l-26.93,45H41.12l29.08-45L0,164.82l206.88-37.48-6.5-30.24h0L194.92,70l-11.5,19.2,13.27,4.85L116,94,176.83,0Zm396,0H486.3a7.9,7.9,0,0,1,1.4,2.21,22.66,22.66,0,0,1,1.16,5.26c.52,3.06,1.13,3.51.76,5.86-.71,4.54-1.54,4.1-2.93,6.77a36.38,36.38,0,0,0-2.54,6.72.18.18,0,0,0,.2.22c.49,0,1.52.1,1.56,1.64.06,2-2.29,6-3,7.14s-2.16,3.47-3.43,4.21c-2.18,1.27-2.85.54-3.17,1.18s-2.5,4.75-2.83,5.87a21.74,21.74,0,0,0-.71,4.4.47.47,0,0,0,.29.47c4.39,1.71,15.83,5.78,18.59,10.45L453,75c5.41-.65,11.36-1.38,16.62-2,7.2-.83,18.86-2.13,22.61-2.09a70.71,70.71,0,0,1,9.65,1.17c4.53.61,8.57.76,13.47,1.75a13.8,13.8,0,0,1,7.18,3.35c.21.14,1.19.94,1.19.94,6-.42,15.2-1,17.16-1.16,1-.09,3-.19,3.43-.25C562.94,74.33,573.14,65.42,582,60c9.83-6,24.61-10.89,35.19-11.17,13.68-.36,23.52,2,30.07,7.92s9.11,13.84,6.47,25.74c-2.54,11.46-6.2,16.75-14.66,22s-17.8,6.94-28.82,5.93c-18.38-1.69-34.8-13.16-41.29-16.9-5.58-3.21-13.25-6.61-21.88-7.38a39.93,39.93,0,0,0-5.06,0c-.58,0-7.6.53-12,.86a12.35,12.35,0,0,1,.59,3.29c-.14,2.25-1.38,3.33-2.76,3.15S523.44,91,522.52,89c-.09-.19-.37-.28-.37,0s0,.72,0,1c-.07.61-.44,2.49-1.77,2.87a4.87,4.87,0,0,1-4.06-1,.66.66,0,0,0-1.05.29c-.48,1.36-.76,2.17-3.34,1.67-1.77-.19-1.4.5-2.53.72-2.75.52-4.08-.94-6.26-2s-1.46-3.08-3.63-3.45c-.42-.08-1.15-.21-1.56-.26a98.8,98.8,0,0,1,3.45,15.75.37.37,0,0,1-.32.42l-2.22.27a.34.34,0,0,0-.31.41c.55,2.87,1.94,8.24,2.24,12.11.54,7,.45,9.1,0,12.59a.36.36,0,0,0,.42.4,7.11,7.11,0,0,0,2.56-1,15.19,15.19,0,0,1,.8-4.08,10.57,10.57,0,0,1,.72-.88,1.81,1.81,0,0,0,.4-.7l.57-2a4,4,0,0,1,.37-.88l3-5.47s.71-1.49,1.93-1.16a3.88,3.88,0,0,1,2,3.19,12.42,12.42,0,0,1-1.45,4.63l1.29,2.07a5.4,5.4,0,0,0,4.59-.9,20.2,20.2,0,0,0,1.93-1.44c-.56-1.52.79-3.47,4.47-2.76,1.27.54,4.88,3.4.37,6.36a.2.2,0,0,0,.13.37c4.91-.3,4.29,5.64,1,7.43a.55.55,0,0,0-.17.81,5.08,5.08,0,0,1,1.12,3.18s0,1.57-4.76,3.2c0,0-1.46.59-.88,1.67.58.21,1.22.43,2,.67,0,0,4.33,1,3.49,3.37,0,0-.7,2-4.81.69a21.75,21.75,0,0,1-4-.13,58.28,58.28,0,0,1-7.82,1.94,3.9,3.9,0,0,0-2.21,1.33l0,0c-2.66,3-10.76,7.24-14.39,7.28-4,.05-4.54-3.06-7.47-6.14-5.69-6-6.66-13.4-7.53-20.78a.42.42,0,0,0-.83,0c-1,8.66-1.52,16.45-6.31,20.72-2.93,2.61-7.51,4.66-14.94,6.42-28.19,6.68-58.52,24-55.09,27.92,1.36,1.56,4.54-1.54,10.11-4.1,21-9.67,48.22-11.6,57-10.91a1.32,1.32,0,0,1,1.2,1.2,39.17,39.17,0,0,0,1.34,6.2c.77,2.71,1.64,7.55,4.52,10.24,5.23,4.9,4.51,6.71,3.28,13.28-.8,4.3,5.08,7.88,5.23,8h60.62l9.32-45h61.54c62.88,0,90.83-28.71,101.5-83.7C721.74,55.61,721.58,0,639.41,0ZM369.14,209.85c.84-.93,1.82-2,3-3.17,2.64-2.71.57-9.58,1.09-12.23.67-3.46,6.65-5.29,7.59-8.68,1.27-4.62-7.85-3.83-3.5-8.71,2.72-3.05,6.7-2,6.43-5-.44-4.87,4.31-8.17,6.31-9.69,8.71-6.61,28.23-17,40.06-20.48,12.4-3.61-4.69-3.27-18.83,1.91-12.85,4.7,16.62-13.75,39.94-19.6,16.61-4.17-12.2-5-38.75,6.69-8.44,3.71-13.14,6-16.51,8.17a.16.16,0,0,1-.24-.2c1.32-2.69,4.07-7.29,3.26-12a14.78,14.78,0,0,1,1.08-9c1-1.91.4-7,1.51-9.7a.45.45,0,0,1,.54-.23l14.26,4.47,55.75-19L419,101.3,400.61,85.56C398,82.8,395.3,71.94,398,67.88a70.9,70.9,0,0,1,9.55-11.68c2.51-2.2,10.18-3.14,13.95-5.05,4.21-2.12,7.58-.68,10.61-1.16a84.21,84.21,0,0,0,9.68-3,.18.18,0,0,0,.13-.19,28.58,28.58,0,0,0-.31-3.67,36.38,36.38,0,0,1-1-10.2c.32-3.3,3.2-6.2,3.34-8.4s-1.46-4.46-.24-6.61,1.43-3.55,2.73-7.76c-.33-2.49-1.92-3.38-.77-5.94C446.27,2.86,447.3,1,447.75,0H253.81l11.08,53.21h76.44l-8.42,40.84,57.6,0-117.58,21.3,55.61-.11-19.48,94.59ZM573.87,88.31a2,2,0,0,0,2.84-2c.06-5.3,1-7.71,2.14-11.95.46-1.7-1-3.06-2.42-2.28-8.56,4.62-14.81,6.55-18.52,7.37a1.49,1.49,0,0,0-1.1,1.35,1.23,1.23,0,0,0,.83,1.28A73.49,73.49,0,0,1,573.87,88.31Z" transform="translate(8.51 21.07)"/><g class="cls-4"><rect class="cls-1" width="743.88" height="230.92"/></g></g></g></svg>