<svg xmlns="http://www.w3.org/2000/svg" xmlns:xlink="http://www.w3.org/1999/xlink" viewBox="0 0 783.2 397.49"><defs><style>.cls-1{fill:#fff;}.cls-2{clip-path:url(#clip-path);}.cls-3{clip-path:url(#clip-path-2);}</style><clipPath id="clip-path" transform="translate(8.59 21.25)"><path class="cls-1" d="M245.44,0l44.21,211.64H225.77l-9.42-45.36H139.28l-27.15,45.36H41.47L70.8,166.28,0,166.23l208.65-37.8-6.55-30.5h0L196.58,70.6,185,90l13.38,4.89L117,94.8,178.34,0ZM644.86,0H490.45a7.79,7.79,0,0,1,1.41,2.23A22.61,22.61,0,0,1,493,7.53c.53,3.09,1.14,3.55.77,5.91-.72,4.58-1.55,4.14-2.95,6.83a37,37,0,0,0-2.57,6.78.18.18,0,0,0,.2.22c.5,0,1.53.1,1.58,1.65.06,2-2.31,6.06-3,7.2s-2.17,3.51-3.45,4.25c-2.21,1.29-2.89.54-3.21,1.19s-2.52,4.8-2.85,5.93a21.91,21.91,0,0,0-.71,4.43.46.46,0,0,0,.29.47c4.43,1.73,16,5.83,18.75,10.54l-39,12.67c5.45-.65,11.45-1.39,16.76-2,7.26-.83,19-2.14,22.8-2.11a72.91,72.91,0,0,1,9.73,1.18c4.58.62,8.64.78,13.59,1.77A13.9,13.9,0,0,1,527,77.82c.21.14,1.2,1,1.2,1,6-.43,15.33-1,17.3-1.18,1-.08,3.07-.19,3.47-.24C567.75,75,578,66,587,60.51c9.91-6,24.82-11,35.49-11.26,13.79-.36,23.71,2,30.32,8s9.19,14,6.53,26c-2.56,11.56-6.26,16.89-14.79,22.2s-17.95,7-29.07,6c-18.53-1.7-35.09-13.27-41.64-17-5.63-3.24-13.36-6.67-22.06-7.44a37.05,37.05,0,0,0-5.1,0c-.59,0-7.67.53-12.14.86a12.17,12.17,0,0,1,.59,3.32c-.13,2.27-1.39,3.35-2.78,3.18s-4.45-2.53-5.37-4.5c-.09-.19-.37-.28-.37,0a9.19,9.19,0,0,1,0,1c-.06.62-.44,2.52-1.78,2.9a4.9,4.9,0,0,1-4.09-1,.67.67,0,0,0-1.06.29c-.49,1.38-.77,2.2-3.37,1.69-1.79-.19-1.42.51-2.56.72-2.77.53-4.11-.94-6.31-2S506,90.39,503.78,90c-.42-.08-1.15-.21-1.57-.26a99.66,99.66,0,0,1,3.48,15.88.37.37,0,0,1-.32.43l-2.24.27a.35.35,0,0,0-.32.42c.56,2.89,2,8.31,2.26,12.21.55,7.09.46,9.17,0,12.69a.36.36,0,0,0,.42.41,7.42,7.42,0,0,0,2.58-1,14.8,14.8,0,0,1,.81-4.11,10.91,10.91,0,0,1,.72-.9,1.59,1.59,0,0,0,.4-.7l.58-2a4.08,4.08,0,0,1,.37-.89l3.06-5.51s.72-1.51,2-1.17a3.88,3.88,0,0,1,2,3.21,12.6,12.6,0,0,1-1.46,4.68l1.3,2.08a5.49,5.49,0,0,0,4.63-.9,20.23,20.23,0,0,0,2-1.46c-.57-1.53.79-3.49,4.5-2.78,1.28.54,4.92,3.43.38,6.42a.2.2,0,0,0,.13.37c4.95-.3,4.33,5.68,1,7.49a.56.56,0,0,0-.17.82,5.15,5.15,0,0,1,1.12,3.21s0,1.57-4.79,3.22c0,0-1.48.6-.89,1.68.58.22,1.22.44,2,.68,0,0,4.36,1,3.51,3.4,0,0-.7,2-4.85.7a21.61,21.61,0,0,1-4.08-.14,57.21,57.21,0,0,1-7.88,2,4,4,0,0,0-2.23,1.34l0,0c-2.68,3.07-10.85,7.3-14.51,7.35-4.06,0-4.57-3.1-7.54-6.2-5.73-6-6.71-13.51-7.58-21a.42.42,0,0,0-.84,0c-1,8.74-1.54,16.59-6.37,20.9-3,2.64-7.57,4.7-15.07,6.48-28.43,6.74-59,24.19-55.56,28.16,1.37,1.57,4.59-1.56,10.2-4.14,21.2-9.75,48.64-11.7,57.47-11a1.32,1.32,0,0,1,1.2,1.2,39.34,39.34,0,0,0,1.36,6.26c.77,2.73,1.66,7.61,4.55,10.33,5.28,4.94,4.56,6.77,3.32,13.39-.82,4.34,5.11,7.95,5.27,8.11h61.13l9.41-45.36h62c63.43,0,91.62-28.95,102.38-84.41C727.89,56.09,727.74,0,644.86,0ZM372.29,211.64c.85-.94,1.83-2,3-3.19,2.67-2.74.59-9.67,1.1-12.34.68-3.5,6.71-5.34,7.66-8.76,1.28-4.65-7.92-3.85-3.53-8.78,2.74-3.07,6.76-2,6.48-5-.44-4.91,4.35-8.25,6.37-9.78,8.78-6.66,28.47-17.18,40.4-20.65,12.51-3.64-4.73-3.3-19,1.92-13,4.75,16.76-13.86,40.28-19.77,16.75-4.2-12.31-5-39.08,6.76-8.51,3.74-13.25,6-16.66,8.24a.16.16,0,0,1-.23-.21c1.32-2.71,4.1-7.35,3.29-12.14a14.91,14.91,0,0,1,1.09-9c1-1.92.4-7.1,1.52-9.77a.45.45,0,0,1,.54-.24l14.39,4.51,56.22-19.15-53.54,7.93L404,86.29c-2.63-2.79-5.36-13.74-2.61-17.83a71.34,71.34,0,0,1,9.64-11.78c2.53-2.22,10.27-3.17,14.07-5.09,4.25-2.14,7.64-.69,10.7-1.18a86.62,86.62,0,0,0,9.77-3,.19.19,0,0,0,.12-.19,27.54,27.54,0,0,0-.31-3.71,36.59,36.59,0,0,1-1.05-10.28c.32-3.33,3.22-6.25,3.37-8.47s-1.47-4.5-.24-6.67c1.14-2,1.44-3.57,2.74-7.82-.32-2.52-1.92-3.42-.76-6,.61-1.36,1.65-3.28,2.1-4.24H256l11.18,53.66h77.08l-8.48,41.19,58.08,0L275.26,116.36l56.09-.11L311.7,211.64ZM578.76,89.06a2,2,0,0,0,2.87-2c.06-5.33,1-7.77,2.16-12,.46-1.72-1-3.09-2.44-2.31-8.63,4.66-14.94,6.62-18.68,7.44a1.47,1.47,0,0,0-1.1,1.36,1.24,1.24,0,0,0,.83,1.29A74,74,0,0,1,578.76,89.06Z"/></clipPath><clipPath id="clip-path-2" transform="translate(8.59 21.25)"><path class="cls-1" d="M699.45,202.78H696l.42-2.06h9.51l-.42,2.06H702l-1.78,8.86h-2.52Zm20.08-2.06-2.16,10.92H715l1.28-6.49-4.16,5.33H711l-2.25-5.39-1.3,6.55h-2.38l2.19-10.92h2.06l2.72,6.8,5.34-6.8Zm-320,30L396,247.34h22.82l-18.93,89.91h19.9l22.47-106.49Zm97.15-1.53c-33.23,0-55.29,32.1-55.64,69.83-.25,24.95,13.86,39.71,37.14,39.71,33.06,0,55.12-32.1,55.48-69.82C533.91,244,519.8,229.23,496.68,229.23ZM480,321.57c-12.11,0-19.24-7.6-19.09-23,.23-22.36,12.3-52.18,33.89-52.18,11.79,0,18.91,7.6,18.77,23C513.39,291.77,501.46,321.57,480,321.57ZM592,229.23c-33.22,0-55.27,32.1-55.64,69.83-.25,24.95,13.86,39.71,37.14,39.71,33.08,0,55.14-32.1,55.5-69.82C629.19,244,615.09,229.23,592,229.23ZM575.3,321.57c-12.09,0-19.22-7.6-19.07-23,.21-22.36,12.28-52.18,33.89-52.18,11.79,0,18.91,7.6,18.77,23C608.67,291.77,596.74,321.57,575.3,321.57Zm111.94-92.34c-33.23,0-55.29,32.1-55.64,69.83-.25,24.95,13.86,39.71,37.14,39.71,33.08,0,55.14-32.1,55.5-69.82C724.48,244,710.37,229.23,687.24,229.23Zm-16.65,92.34c-12.1,0-19.22-7.6-19.08-23,.21-22.36,12.29-52.18,33.88-52.18,11.8,0,18.93,7.6,18.78,23C704,291.77,692,321.57,670.59,321.57ZM98.27,231.31,86.76,285.89H77.1l7.49-35.79L60.84,279.65H56.29L44,249.4l-7.65,36.49H26.64l11.51-54.58h8.32l14.17,36.34,28.84-36.34Zm37.82,0H126L89.73,285.89h10.92l8-12.64h27.63l2.77,12.64h10.14Zm-22.29,34,15.36-24,5.36,24Zm36.12,15,4.39-8a29.06,29.06,0,0,0,17.84,5.93c8,0,13.21-2.89,13.26-7.72.1-10.14-27.66-4.83-27.49-22.38.1-10.76,9.9-17.62,24.1-17.62,7.07,0,13.73,1.63,18.33,4.6l-4.08,8A27,27,0,0,0,181.39,239c-8.31,0-13.29,3.35-13.34,8.11-.1,10.22,27.66,5.22,27.5,21.91-.1,10.84-10,17.7-24.42,17.7C162.49,286.67,154.2,283.94,149.92,280.28Zm69.22-40.39H200.93l1.81-8.58h46.63l-1.89,8.58H229.27l-9.62,46H209.44Zm41-.08-3,14.19h26.61L282,262.34H255.35l-3.12,15.05h31.08l-1.81,8.5H240.29l11.51-54.58h40.11l-1.81,8.5Zm79.05,8c.1-10.38-7.46-16.47-20.72-16.47H297.1l-11.51,54.59h10.29l3.28-16h13.66l8.87,16h10.83l-9.64-17.32C333,265.77,339.07,258.37,339.17,247.77Zm-26,13.79H301l4.61-21.68h11.69c7.45,0,11.67,2.89,11.61,8.82C328.8,257.12,323,261.56,313.13,261.56Zm22.37,18.72,4.4-8a29,29,0,0,0,17.83,5.93c8,0,13.22-2.89,13.26-7.72.1-10.14-27.66-4.83-27.49-22.38.11-10.76,9.9-17.62,24.11-17.62,7.06,0,13.72,1.63,18.32,4.6l-4.08,8A26.91,26.91,0,0,0,367,239c-8.32,0-13.3,3.35-13.34,8.11-.1,10.22,27.65,5.22,27.5,21.91-.11,10.84-10,17.7-24.43,17.7C348.08,286.67,339.78,283.94,335.5,280.28Z"/></clipPath></defs><g id="Layer_2" data-name="Layer 2"><g id="Layer_2-2" data-name="Layer 2"><path class="cls-1" d="M245.44,0l44.21,211.64H225.77l-9.42-45.36H139.28l-27.15,45.36H41.47L70.8,166.28,0,166.23l208.65-37.8-6.55-30.5h0L196.58,70.6,185,90l13.38,4.89L117,94.8,178.34,0ZM644.86,0H490.45a7.79,7.79,0,0,1,1.41,2.23A22.61,22.61,0,0,1,493,7.53c.53,3.09,1.14,3.55.77,5.91-.72,4.58-1.55,4.14-2.95,6.83a37,37,0,0,0-2.57,6.78.18.18,0,0,0,.2.22c.5,0,1.53.1,1.58,1.65.06,2-2.31,6.06-3,7.2s-2.17,3.51-3.45,4.25c-2.21,1.29-2.89.54-3.21,1.19s-2.52,4.8-2.85,5.93a21.91,21.91,0,0,0-.71,4.43.46.46,0,0,0,.29.47c4.43,1.73,16,5.83,18.75,10.54l-39,12.67c5.45-.65,11.45-1.39,16.76-2,7.26-.83,19-2.14,22.8-2.11a72.91,72.91,0,0,1,9.73,1.18c4.58.62,8.64.78,13.59,1.77A13.9,13.9,0,0,1,527,77.82c.21.14,1.2,1,1.2,1,6-.43,15.33-1,17.3-1.18,1-.08,3.07-.19,3.47-.24C567.75,75,578,66,587,60.51c9.91-6,24.82-11,35.49-11.26,13.79-.36,23.71,2,30.32,8s9.19,14,6.53,26c-2.56,11.56-6.26,16.89-14.79,22.2s-17.95,7-29.07,6c-18.53-1.7-35.09-13.27-41.64-17-5.63-3.24-13.36-6.67-22.06-7.44a37.05,37.05,0,0,0-5.1,0c-.59,0-7.67.53-12.14.86a12.17,12.17,0,0,1,.59,3.32c-.13,2.27-1.39,3.35-2.78,3.18s-4.45-2.53-5.37-4.5c-.09-.19-.37-.28-.37,0a9.19,9.19,0,0,1,0,1c-.06.62-.44,2.52-1.78,2.9a4.9,4.9,0,0,1-4.09-1,.67.67,0,0,0-1.06.29c-.49,1.38-.77,2.2-3.37,1.69-1.79-.19-1.42.51-2.56.72-2.77.53-4.11-.94-6.31-2S506,90.39,503.78,90c-.42-.08-1.15-.21-1.57-.26a99.66,99.66,0,0,1,3.48,15.88.37.37,0,0,1-.32.43l-2.24.27a.35.35,0,0,0-.32.42c.56,2.89,2,8.31,2.26,12.21.55,7.09.46,9.17,0,12.69a.36.36,0,0,0,.42.41,7.42,7.42,0,0,0,2.58-1,14.8,14.8,0,0,1,.81-4.11,10.91,10.91,0,0,1,.72-.9,1.59,1.59,0,0,0,.4-.7l.58-2a4.08,4.08,0,0,1,.37-.89l3.06-5.51s.72-1.51,2-1.17a3.88,3.88,0,0,1,2,3.21,12.6,12.6,0,0,1-1.46,4.68l1.3,2.08a5.49,5.49,0,0,0,4.63-.9,20.23,20.23,0,0,0,2-1.46c-.57-1.53.79-3.49,4.5-2.78,1.28.54,4.92,3.43.38,6.42a.2.2,0,0,0,.13.37c4.95-.3,4.33,5.68,1,7.49a.56.56,0,0,0-.17.82,5.15,5.15,0,0,1,1.12,3.21s0,1.57-4.79,3.22c0,0-1.48.6-.89,1.68.58.22,1.22.44,2,.68,0,0,4.36,1,3.51,3.4,0,0-.7,2-4.85.7a21.61,21.61,0,0,1-4.08-.14,57.21,57.21,0,0,1-7.88,2,4,4,0,0,0-2.23,1.34l0,0c-2.68,3.07-10.85,7.3-14.51,7.35-4.06,0-4.57-3.1-7.54-6.2-5.73-6-6.71-13.51-7.58-21a.42.42,0,0,0-.84,0c-1,8.74-1.54,16.59-6.37,20.9-3,2.64-7.57,4.7-15.07,6.48-28.43,6.74-59,24.19-55.56,28.16,1.37,1.57,4.59-1.56,10.2-4.14,21.2-9.75,48.64-11.7,57.47-11a1.32,1.32,0,0,1,1.2,1.2,39.34,39.34,0,0,0,1.36,6.26c.77,2.73,1.66,7.61,4.55,10.33,5.28,4.94,4.56,6.77,3.32,13.39-.82,4.34,5.11,7.95,5.27,8.11h61.13l9.41-45.36h62c63.43,0,91.62-28.95,102.38-84.41C727.89,56.09,727.74,0,644.86,0ZM372.29,211.64c.85-.94,1.83-2,3-3.19,2.67-2.74.59-9.67,1.1-12.34.68-3.5,6.71-5.34,7.66-8.76,1.28-4.65-7.92-3.85-3.53-8.78,2.74-3.07,6.76-2,6.48-5-.44-4.91,4.35-8.25,6.37-9.78,8.78-6.66,28.47-17.18,40.4-20.65,12.51-3.64-4.73-3.3-19,1.92-13,4.75,16.76-13.86,40.28-19.77,16.75-4.2-12.31-5-39.08,6.76-8.51,3.74-13.25,6-16.66,8.24a.16.16,0,0,1-.23-.21c1.32-2.71,4.1-7.35,3.29-12.14a14.91,14.91,0,0,1,1.09-9c1-1.92.4-7.1,1.52-9.77a.45.45,0,0,1,.54-.24l14.39,4.51,56.22-19.15-53.54,7.93L404,86.29c-2.63-2.79-5.36-13.74-2.61-17.83a71.34,71.34,0,0,1,9.64-11.78c2.53-2.22,10.27-3.17,14.07-5.09,4.25-2.14,7.64-.69,10.7-1.18a86.62,86.62,0,0,0,9.77-3,.19.19,0,0,0,.12-.19,27.54,27.54,0,0,0-.31-3.71,36.59,36.59,0,0,1-1.05-10.28c.32-3.33,3.22-6.25,3.37-8.47s-1.47-4.5-.24-6.67c1.14-2,1.44-3.57,2.74-7.82-.32-2.52-1.92-3.42-.76-6,.61-1.36,1.65-3.28,2.1-4.24H256l11.18,53.66h77.08l-8.48,41.19,58.08,0L275.26,116.36l56.09-.11L311.7,211.64ZM578.76,89.06a2,2,0,0,0,2.87-2c.06-5.33,1-7.77,2.16-12,.46-1.72-1-3.09-2.44-2.31-8.63,4.66-14.94,6.62-18.68,7.44a1.47,1.47,0,0,0-1.1,1.36,1.24,1.24,0,0,0,.83,1.29A74,74,0,0,1,578.76,89.06Z" transform="translate(8.59 21.25)"/><g class="cls-2"><rect class="cls-1" width="750.22" height="233.47"/><polygon class="cls-1" points="500.98 116.7 448.48 178.17 401.52 203.79 401.09 232.89 0 232.88 0 189.03 468.36 104.17 500.98 116.7"/></g><path class="cls-1" d="M699.45,202.78H696l.42-2.06h9.51l-.42,2.06H702l-1.78,8.86h-2.52Zm20.08-2.06-2.16,10.92H715l1.28-6.49-4.16,5.33H711l-2.25-5.39-1.3,6.55h-2.38l2.19-10.92h2.06l2.72,6.8,5.34-6.8Zm-320,30L396,247.34h22.82l-18.93,89.91h19.9l22.47-106.49Zm97.15-1.53c-33.23,0-55.29,32.1-55.64,69.83-.25,24.95,13.86,39.71,37.14,39.71,33.06,0,55.12-32.1,55.48-69.82C533.91,244,519.8,229.23,496.68,229.23ZM480,321.57c-12.11,0-19.24-7.6-19.09-23,.23-22.36,12.3-52.18,33.89-52.18,11.79,0,18.91,7.6,18.77,23C513.39,291.77,501.46,321.57,480,321.57ZM592,229.23c-33.22,0-55.27,32.1-55.64,69.83-.25,24.95,13.86,39.71,37.14,39.71,33.08,0,55.14-32.1,55.5-69.82C629.19,244,615.09,229.23,592,229.23ZM575.3,321.57c-12.09,0-19.22-7.6-19.07-23,.21-22.36,12.28-52.18,33.89-52.18,11.79,0,18.91,7.6,18.77,23C608.67,291.77,596.74,321.57,575.3,321.57Zm111.94-92.34c-33.23,0-55.29,32.1-55.64,69.83-.25,24.95,13.86,39.71,37.14,39.71,33.08,0,55.14-32.1,55.5-69.82C724.48,244,710.37,229.23,687.24,229.23Zm-16.65,92.34c-12.1,0-19.22-7.6-19.08-23,.21-22.36,12.29-52.18,33.88-52.18,11.8,0,18.93,7.6,18.78,23C704,291.77,692,321.57,670.59,321.57ZM98.27,231.31,86.76,285.89H77.1l7.49-35.79L60.84,279.65H56.29L44,249.4l-7.65,36.49H26.64l11.51-54.58h8.32l14.17,36.34,28.84-36.34Zm37.82,0H126L89.73,285.89h10.92l8-12.64h27.63l2.77,12.64h10.14Zm-22.29,34,15.36-24,5.36,24Zm36.12,15,4.39-8a29.06,29.06,0,0,0,17.84,5.93c8,0,13.21-2.89,13.26-7.72.1-10.14-27.66-4.83-27.49-22.38.1-10.76,9.9-17.62,24.1-17.62,7.07,0,13.73,1.63,18.33,4.6l-4.08,8A27,27,0,0,0,181.39,239c-8.31,0-13.29,3.35-13.34,8.11-.1,10.22,27.66,5.22,27.5,21.91-.1,10.84-10,17.7-24.42,17.7C162.49,286.67,154.2,283.94,149.92,280.28Zm69.22-40.39H200.93l1.81-8.58h46.63l-1.89,8.58H229.27l-9.62,46H209.44Zm41-.08-3,14.19h26.61L282,262.34H255.35l-3.12,15.05h31.08l-1.81,8.5H240.29l11.51-54.58h40.11l-1.81,8.5Zm79.05,8c.1-10.38-7.46-16.47-20.72-16.47H297.1l-11.51,54.59h10.29l3.28-16h13.66l8.87,16h10.83l-9.64-17.32C333,265.77,339.07,258.37,339.17,247.77Zm-26,13.79H301l4.61-21.68h11.69c7.45,0,11.67,2.89,11.61,8.82C328.8,257.12,323,261.56,313.13,261.56Zm22.37,18.72,4.4-8a29,29,0,0,0,17.83,5.93c8,0,13.22-2.89,13.26-7.72.1-10.14-27.66-4.83-27.49-22.38.11-10.76,9.9-17.62,24.11-17.62,7.06,0,13.72,1.63,18.32,4.6l-4.08,8A26.91,26.91,0,0,0,367,239c-8.32,0-13.3,3.35-13.34,8.11-.1,10.22,27.65,5.22,27.5,21.91-.11,10.84-10,17.7-24.43,17.7C348.08,286.67,339.78,283.94,335.5,280.28Z" transform="translate(8.59 21.25)"/><g class="cls-3"><rect class="cls-1" x="16.71" y="206.92" width="766.49" height="190.57"/></g><path class="cls-1" d="M245.44,0l44.2,211.64H225.77l-9.42-45.36H139.28l-27.16,45.36H41.47L70.8,166.28,0,166.23l208.64-37.8-6.55-30.5h0L196.58,70.6,185,90l13.38,4.89L117,94.8,178.33,0ZM644.86,0H490.44a7.65,7.65,0,0,1,1.42,2.23A22.61,22.61,0,0,1,493,7.53c.53,3.09,1.14,3.55.77,5.91-.73,4.58-1.55,4.14-3,6.83a36.77,36.77,0,0,0-2.56,6.78.18.18,0,0,0,.2.22c.5,0,1.53.1,1.58,1.65.06,2-2.32,6.06-3,7.2s-2.17,3.51-3.45,4.25c-2.2,1.29-2.88.54-3.2,1.19s-2.52,4.8-2.86,5.93a21.91,21.91,0,0,0-.71,4.43.47.47,0,0,0,.3.47c4.42,1.73,16,5.83,18.74,10.54l-39,12.67c5.46-.65,11.46-1.39,16.76-2,7.27-.83,19-2.14,22.81-2.11a73.14,73.14,0,0,1,9.73,1.18c4.57.62,8.64.78,13.59,1.77A14,14,0,0,1,527,77.82c.21.14,1.19,1,1.19,1,6-.43,15.34-1,17.31-1.18,1-.08,3.07-.19,3.47-.24C567.74,75,578,66,587,60.51c9.92-6,24.82-11,35.5-11.26,13.79-.36,23.71,2,30.32,8s9.19,14,6.53,26c-2.57,11.56-6.26,16.89-14.79,22.2s-17.95,7-29.07,6c-18.53-1.7-35.09-13.27-41.64-17-5.63-3.24-13.36-6.67-22.06-7.44a37.05,37.05,0,0,0-5.1,0c-.6,0-7.67.53-12.14.86a12.17,12.17,0,0,1,.59,3.32c-.13,2.27-1.39,3.35-2.78,3.18s-4.45-2.53-5.37-4.5c-.09-.19-.37-.28-.37,0s0,.72,0,1c-.07.62-.44,2.52-1.78,2.9a4.93,4.93,0,0,1-4.1-1,.67.67,0,0,0-1.06.29c-.48,1.38-.76,2.2-3.37,1.69-1.78-.19-1.41.51-2.55.72-2.77.53-4.11-.94-6.31-2S506,90.39,503.78,90c-.43-.08-1.16-.21-1.57-.26a99.66,99.66,0,0,1,3.48,15.88.38.38,0,0,1-.32.43l-2.24.27a.35.35,0,0,0-.32.42c.56,2.89,2,8.31,2.26,12.21.54,7.09.45,9.17,0,12.69a.36.36,0,0,0,.42.41,7.47,7.47,0,0,0,2.59-1,15.3,15.3,0,0,1,.8-4.11c.24-.32.48-.62.73-.9a1.69,1.69,0,0,0,.4-.7l.58-2a4.08,4.08,0,0,1,.37-.89l3.06-5.51s.71-1.51,2-1.17a3.91,3.91,0,0,1,2,3.21,12.6,12.6,0,0,1-1.46,4.68l1.3,2.08a5.49,5.49,0,0,0,4.63-.9,20.23,20.23,0,0,0,2-1.46c-.57-1.53.79-3.49,4.5-2.78,1.28.54,4.92,3.43.38,6.42a.2.2,0,0,0,.12.37c5-.3,4.33,5.68,1,7.49a.56.56,0,0,0-.16.82,5.21,5.21,0,0,1,1.12,3.21s0,1.57-4.8,3.22c0,0-1.47.6-.88,1.68.58.22,1.22.44,2,.68,0,0,4.36,1,3.51,3.4,0,0-.71,2-4.85.7a21.61,21.61,0,0,1-4.08-.14,57.21,57.21,0,0,1-7.88,2,3.93,3.93,0,0,0-2.23,1.34l0,0c-2.68,3.07-10.86,7.3-14.51,7.35-4.07,0-4.58-3.1-7.54-6.2-5.73-6-6.71-13.51-7.59-21a.42.42,0,0,0-.83,0c-1,8.74-1.54,16.59-6.38,20.9-2.95,2.64-7.57,4.7-15.06,6.48-28.43,6.74-59,24.19-55.56,28.16,1.37,1.57,4.58-1.56,10.2-4.14,21.19-9.75,48.63-11.7,57.46-11a1.33,1.33,0,0,1,1.21,1.2,39.34,39.34,0,0,0,1.36,6.26c.77,2.73,1.65,7.61,4.55,10.33,5.28,4.94,4.56,6.77,3.31,13.39-.81,4.34,5.12,7.95,5.28,8.11h61.13l9.4-45.36h62.06c63.43,0,91.61-28.95,102.38-84.41C727.89,56.09,727.74,0,644.86,0ZM372.28,211.64c.86-.94,1.84-2,3-3.19,2.67-2.74.58-9.67,1.1-12.34.68-3.5,6.71-5.34,7.65-8.76,1.29-4.65-7.91-3.85-3.52-8.78,2.74-3.07,6.75-2,6.48-5-.44-4.91,4.35-8.25,6.37-9.78,8.78-6.66,28.47-17.18,40.4-20.65,12.5-3.64-4.73-3.3-19,1.92-13,4.75,16.76-13.86,40.28-19.77,16.75-4.2-12.31-5-39.09,6.76-8.5,3.74-13.25,6-16.65,8.24a.17.17,0,0,1-.24-.21c1.33-2.71,4.11-7.35,3.3-12.14a14.84,14.84,0,0,1,1.09-9c1-1.92.4-7.1,1.52-9.77a.44.44,0,0,1,.54-.24l14.38,4.51,56.22-19.15-53.54,7.93L404,86.29c-2.62-2.79-5.35-13.74-2.6-17.83a70.82,70.82,0,0,1,9.64-11.78c2.53-2.22,10.27-3.17,14.07-5.09,4.24-2.14,7.64-.69,10.69-1.18a85.33,85.33,0,0,0,9.77-3,.18.18,0,0,0,.13-.19,29.29,29.29,0,0,0-.31-3.71,36.22,36.22,0,0,1-1.05-10.28c.32-3.33,3.22-6.25,3.36-8.47s-1.46-4.5-.24-6.67c1.15-2,1.45-3.57,2.75-7.82-.32-2.52-1.93-3.42-.77-6,.61-1.36,1.66-3.28,2.11-4.24H256l11.18,53.66h77.09l-8.49,41.19,58.09,0L275.25,116.36l56.1-.11L311.7,211.64ZM578.76,89.06a2.05,2.05,0,0,0,2.87-2c.06-5.33,1-7.77,2.16-12,.46-1.72-1-3.09-2.44-2.31-8.63,4.66-14.94,6.62-18.69,7.44a1.49,1.49,0,0,0-1.1,1.36,1.24,1.24,0,0,0,.84,1.29A74.23,74.23,0,0,1,578.76,89.06Z" transform="translate(8.59 21.25)"/></g></g></svg>